<svg xmlns="http://www.w3.org/2000/svg" xmlns:xlink="http://www.w3.org/1999/xlink" viewBox="0,0,256,256" width="16px" height="16px" fill-rule="nonzero"><g transform=""><g fill="#ffffff" fill-rule="nonzero" stroke="none" stroke-width="1" stroke-linecap="butt" stroke-linejoin="miter" stroke-miterlimit="10" stroke-dasharray="" stroke-dashoffset="0" font-family="none" font-weight="none" font-size="none" text-anchor="none" style="mix-blend-mode: normal"><g transform="scale(16,16)"><path d="M9,1.94922l-4.64844,3.05078h-1.85156c-0.82422,0 -1.5,0.67578 -1.5,1.5v3c0,0.82422 0.67578,1.5 1.5,1.5h1.85156l4.64844,3.05078zM8,3.80078v8.39844l-3,-1.96875v-4.46094zM10.73047,5.52344l-0.71094,0.70313l1.77344,1.77344l-1.77344,1.77344l0.71094,0.70703l1.76953,-1.77344l1.76953,1.77344l0.71094,-0.70703l-1.77344,-1.77344l1.77344,-1.77344l-0.71094,-0.70312l-1.76953,1.76953zM2.5,6h1.5v4h-1.5c-0.28125,0 -0.5,-0.21875 -0.5,-0.5v-3c0,-0.28125 0.21875,-0.5 0.5,-0.5z"></path></g></g></g></svg>