<svg xmlns="http://www.w3.org/2000/svg" xmlns:xlink="http://www.w3.org/1999/xlink" viewBox="0,0,256,256" width="16px" height="16px" fill-rule="nonzero"><g fill="#ffffff" fill-rule="nonzero" stroke="none" stroke-width="1" stroke-linecap="butt" stroke-linejoin="miter" stroke-miterlimit="10" stroke-dasharray="" stroke-dashoffset="0" font-family="none" font-weight="none" font-size="none" text-anchor="none" style="mix-blend-mode: normal"><g transform="scale(16,16)"><path d="M9,1.94922l-4.64844,3.05078h-1.85156c-0.82253,0 -1.5,0.67747 -1.5,1.5v3c0,0.82253 0.67747,1.5 1.5,1.5h1.85156l4.64844,3.05078zM13.27734,3.30273l-3,1.5l0.44531,0.89453l3,-1.5zM8,3.80078v8.39844l-3,-1.96875v-4.46094zM2.5,6h1.5v4h-1.5c-0.28147,0 -0.5,-0.21853 -0.5,-0.5v-3c0,-0.28147 0.21853,-0.5 0.5,-0.5zM10.5,7.5v1h4.5v-1zM10.72266,10.30273l-0.44531,0.89453l3,1.5l0.44531,-0.89453z"></path></g></g></svg>