<svg xmlns="http://www.w3.org/2000/svg" xmlns:xlink="http://www.w3.org/1999/xlink" viewBox="0 0 512 512" width="64px" height="64px"><defs><linearGradient id="BglHDs8mdftGfhqB1qjEEa" x1="256" x2="256" y1="480.279" y2="40.417" gradientUnits="userSpaceOnUse"><stop offset=".322" stop-color="#a163f5"/><stop offset=".466" stop-color="#b074ee"/><stop offset=".752" stop-color="#d8a1dd"/><stop offset=".898" stop-color="#efbad3"/></linearGradient><linearGradient id="BglHDs8mdftGfhqB1qjEEb" x1="150.529" x2="150.529" y1="480.28" y2="40.417" xlink:href="#BglHDs8mdftGfhqB1qjEEa"/><linearGradient id="BglHDs8mdftGfhqB1qjEEc" x1="361.471" x2="361.471" y1="480.28" y2="40.417" xlink:href="#BglHDs8mdftGfhqB1qjEEa"/></defs><path fill="url(#BglHDs8mdftGfhqB1qjEEa)" d="M460.71,11H51.29A25.819,25.819,0,0,0,25.5,36.79V475.21A25.819,25.819,0,0,0,51.29,501H460.71a25.819,25.819,0,0,0,25.79-25.79V36.79A25.819,25.819,0,0,0,460.71,11ZM476.5,475.21A15.807,15.807,0,0,1,460.71,491H51.29A15.807,15.807,0,0,1,35.5,475.21V36.79A15.807,15.807,0,0,1,51.29,21H460.71A15.807,15.807,0,0,1,476.5,36.79Z"/><path fill="url(#BglHDs8mdftGfhqB1qjEEb)" d="M230.467,38.514H70.591A15.413,15.413,0,0,0,55.2,53.909V457.994a15.413,15.413,0,0,0,15.395,15.395H230.467a15.412,15.412,0,0,0,15.395-15.395V53.909A15.412,15.412,0,0,0,230.467,38.514Zm5.395,419.48a5.4,5.4,0,0,1-5.395,5.395H70.591a5.4,5.4,0,0,1-5.395-5.395V53.909a5.4,5.4,0,0,1,5.395-5.395H230.467a5.4,5.4,0,0,1,5.395,5.395Z"/><path fill="url(#BglHDs8mdftGfhqB1qjEEc)" d="M441.409,38.514H281.533a15.412,15.412,0,0,0-15.4,15.395V457.994a15.412,15.412,0,0,0,15.4,15.395H441.409A15.413,15.413,0,0,0,456.8,457.994V53.909A15.413,15.413,0,0,0,441.409,38.514Zm5.395,419.48a5.4,5.4,0,0,1-5.395,5.395H281.533a5.4,5.4,0,0,1-5.4-5.395V53.909a5.4,5.4,0,0,1,5.4-5.395H441.409a5.4,5.4,0,0,1,5.395,5.395Z"/></svg>